<svg width="56" height="56" viewBox="0 0 56 56" fill="none" xmlns="http://www.w3.org/2000/svg">
<path d="M5.25 3.71875V19.4688C5.25 21.2188 8.75 22.9688 8.75 22.9688C8.75 35.2188 7 42.2188 7 45.7188C7 47.4688 7 49.2188 8.75 50.9688C10.5 52.7188 10.5 52.7188 12.25 50.9688C14 49.2188 14 47.4688 14 45.7188C14 42.2188 12.25 35.2188 12.25 22.9688C12.25 22.9688 15.75 21.2188 15.75 19.4688V3.71875H13.7812V14.2188H11.4844V3.71875H9.51562V14.2188H7.21875V3.71875H5.25ZM27.3438 3.71875C25.5938 3.71875 25.5938 5.46875 25.5938 5.46875V35.2188H25.6375C25.1344 40.2281 24.5 43.6188 24.5 45.7188C24.5 47.4688 24.5 49.2188 26.25 50.9688C28 52.7188 28 52.7188 29.75 50.9688C31.5 49.2188 31.5 47.4688 31.5 45.7188C31.5 43.3016 30.6688 39.2109 30.1438 32.8672C31.4891 29.575 32.5938 25.3969 32.5938 21.2188C32.5938 15.9688 29.7719 6.16875 27.3438 3.71875ZM45.5 3.71875C43.6435 3.71875 41.863 4.825 40.5503 6.79413C39.2375 8.76326 38.5 11.434 38.5 14.2188C38.5018 16.5415 39.0171 18.7979 39.9651 20.6345C40.9131 22.4711 42.2403 23.7844 43.7391 24.3687C43.6187 35.7547 42 42.35 42 45.7188C42 47.4688 42 49.2188 43.75 50.9688C45.5 52.7188 45.5 52.7188 47.25 50.9688C49 49.2188 49 47.4688 49 45.7188C49 42.35 47.3813 35.7547 47.2609 24.3797C48.7609 23.7949 50.089 22.48 51.0372 20.6411C51.9853 18.8023 52.4998 16.5434 52.5 14.2188C52.5 11.434 51.7625 8.76326 50.4497 6.79413C49.137 4.825 47.3565 3.71875 45.5 3.71875Z" fill="white"/>
</svg>
