<svg width="61" height="61" viewBox="0 0 61 61" fill="none" xmlns="http://www.w3.org/2000/svg">
<g clip-path="url(#clip0_6_16)">
<path d="M30.5 0C13.6664 0 0 13.6664 0 30.5C0 47.3336 13.6664 61 30.5 61C47.3031 61 60.9457 47.3824 60.9951 30.5903C60.9982 30.5603 60.9999 30.5302 61 30.5C61 30.4729 60.9988 30.4458 60.9963 30.4189C60.9524 13.6225 47.3067 0 30.5 0ZM35.4611 2.26615C35.9024 2.34249 36.3417 2.42954 36.7787 2.52723C37.2326 2.91275 37.6193 3.19823 37.6889 2.73768C48.0723 5.41497 56.1615 13.7598 58.4868 24.2811C58.0269 26.8955 59.5043 30.1364 58.804 32.1476C58.5356 31.2161 58.7869 30.6141 58.1592 31.3888C56.9466 29.2635 57.118 25.3614 54.9647 24.5098C54.4022 22.4053 53.275 22.6664 51.0771 23.0952C47.6014 22.523 53.1328 24.2237 51.5133 25.9744C51.1284 27.8471 49.4277 29.6045 47.6794 30.6348C46.4405 31.3851 43.0715 34.0209 46.363 32.8003C47.5995 32.8875 48.5713 30.8739 48.997 32.9315C48.3089 35.3776 47.4354 37.9072 45.3505 39.5237C43.9902 40.6675 42.5853 43.0044 42.1858 43.8242C42.5719 44.4513 41.8259 46.2215 42.5274 46.6626C43.7181 50.4055 38.4001 50.0847 38.5581 53.0285C36.8159 54.6328 35.1098 56.9862 32.3196 57.1643C28.7347 58.632 26.9986 54.861 25.4998 52.3777C22.7945 50.469 26.1641 48.1564 24.8209 45.9397C24.3067 43.7205 21.1603 42.5451 22.2369 40.1075C23.2684 38.0671 19.4431 38.9156 19.0808 36.8776C17.119 36.2505 15.5343 38.1171 13.442 37.0362C10.2748 37.3619 9.89664 33.2542 8.28441 31.5535C8.14167 28.9366 9.04691 26.4191 9.78684 23.9041C10.3273 23.299 10.7811 22.8 11.0428 22.3974C12.4666 20.3844 13.8513 19.6341 14.5564 18.5824C15.2897 18.1292 16.0601 17.6247 17.288 17.2477C19.5456 17.3941 21.9576 16.4102 24.3018 16.4303C26.1208 16.7366 23.5997 19.5944 26.2257 19.3035C26.9779 19.3553 28.7951 21.7837 29.3258 20.4149C30.5165 17.5131 33.328 21.3384 35.2946 20.205C37.3656 21.3311 39.0156 18.5159 37.5242 17.3746C37.5754 18.63 36.2529 18.749 36.2017 17.5765C34.7072 16.725 32.5929 19.5322 31.2271 17.7553C29.2629 16.775 29.6167 13.9843 27.4543 13.3035C26.9754 13.0022 26.7253 12.86 26.6357 12.835C26.2471 12.727 28.8744 14.7974 29.0244 15.4409C27.9008 14.8523 27.3359 18.2311 26.4167 17.5314C25.0966 16.4249 25.5889 16.032 27.1218 15.8051C28.0356 15.785 23.8644 12.1963 24.6318 15.4696C22.8476 16.9299 24.0218 13.0705 24.902 13.2199C23.0672 13.1333 21.8276 13.7964 20.313 14.9511C19.6774 16.2229 18.4513 17.0959 17.1196 17.1977C16.7956 17.1677 16.4717 17.1364 16.1479 17.1038C16.2089 16.7116 15.9954 16.3828 15.3659 16.323C15.9216 14.0678 17.1453 11.715 19.8006 12.9564C20.5546 11.3161 19.3089 10.5042 20.9505 9.76C18.5452 10.8183 21.4366 8.13557 19.3706 9.17257C17.4063 8.81938 21.3335 7.28645 21.4769 6.48979C24.0858 5.39362 22.4736 6.74111 22.767 8.20389C22.7432 10.201 24.4207 8.24903 25.6017 7.84094C25.5328 6.69414 28.0972 6.31594 25.7871 6.73501C24.1645 5.17585 28.4839 4.14129 29.1665 3.17993C31.4424 1.85623 34.8603 4.38346 35.724 3.15126C37.9646 3.30071 35.8503 3.11771 35.4611 2.26615ZM23.6308 2.66265C22.595 3.02926 21.5361 3.32877 20.4783 3.63133C21.5095 3.24778 22.5621 2.92435 23.6308 2.66265ZM21.4531 3.79359C22.3534 3.77651 23.0922 4.16691 21.3219 4.65979C20.9456 4.75251 20.546 4.85682 20.1617 4.7153C19.9543 4.06626 20.7528 3.8064 21.4531 3.79359ZM30.062 6.08597C29.8473 6.11708 29.5362 6.29947 29.1129 6.70878C29.0269 7.79458 26.305 8.18864 28.6706 7.94403C30.1139 8.6376 30.9941 5.94872 30.062 6.08597ZM43.1709 11.4101C42.6402 11.3472 41.0079 13.0357 43.0434 13.7098C44.8978 14.2746 43.1178 17.0507 45.9653 16.3035C46.1636 14.9468 42.958 12.8173 43.1569 12.1597C43.4015 11.6467 43.3478 11.4314 43.1709 11.4101ZM34.9121 11.9426C34.0618 12.7154 32.8247 15.0213 35.3452 14.2459C36.1889 13.1486 41.0487 15.3019 39.162 13.398C37.6199 12.2482 35.9699 13.3596 34.9121 11.9426ZM10.27 20.5899C10.4542 20.6174 10.6738 20.8034 10.944 20.901L10.8025 21.339C10.5707 21.2658 10.2474 21.217 9.81368 21.1938C9.94361 20.6875 10.0906 20.5631 10.27 20.5899ZM45.8811 20.8998C45.1229 21.572 47.7416 23.3069 48.3712 23.718L48.739 23.4588C49.5198 22.1107 46.2953 22.3388 45.8811 20.8998ZM38.2336 22.7469C38.1714 23.8736 39.3993 24.8904 39.9025 26.0055C40.7029 27.6135 41.6386 29.6277 42.7714 30.4195C42.9098 30.705 43.5869 31.5059 43.9328 31.0661C43.0855 29.8918 43.044 28.3979 41.7368 27.4683C40.7864 25.8396 39.7208 23.7613 38.2336 22.7469ZM47.131 46.4783C47.7166 46.518 46.9724 49.704 46.0764 50.1371C45.2943 51.068 44.0615 53.7331 42.6073 53.0712C42.7311 50.4159 44.3982 48.5743 46.4985 47.0261C46.7894 46.6278 46.9956 46.4692 47.131 46.4783Z" fill="white"/>
</g>
<defs>
<clipPath id="clip0_6_16">
<rect width="61" height="61" fill="white"/>
</clipPath>
</defs>
</svg>
