<svg width="420" height="236" viewBox="0 0 420 236" fill="none" xmlns="http://www.w3.org/2000/svg">
<mask id="path-1-inside-1_6_14" fill="white">
<path d="M319.663 14.2298C322.448 14.8711 325.128 15.15 325.572 19.6675C325.798 21.9685 328.536 22.2038 330.557 22.2659C334.182 22.378 335.13 23.0425 334.914 26.7075C334.74 29.6673 335.584 30.543 338.024 30.7867C341.237 31.1073 344.248 32.1461 347.629 30.6718C350.673 29.3457 352.413 31.0962 353.858 35.2523C354.164 36.1327 354.603 37.3068 355.51 36.672C359.645 33.7789 364.583 36.0326 369.013 33.4796C371.956 31.7838 376.149 32.552 379.101 35.7694C380.529 37.3253 382.223 38.0731 383.995 36.7053C385.874 35.2551 387.43 36.5895 388.396 37.7173C391.467 41.2989 394.935 40.2341 398.458 39.4724C398.93 39.3705 399.387 39.1777 399.85 39.0276C401.764 38.4058 399.97 43.3867 402.115 41.2637C403.252 40.1387 404.047 39.9033 405.333 39.7263C411.19 38.9192 415.509 42.6861 420 46.0249L417.852 51.7471C417.696 51.7023 417.54 51.6612 417.383 51.6239C416.109 51.3227 414.946 48.7947 414.562 49.486C413.768 50.9131 412.17 52.1336 412.378 54.1296C412.644 56.6909 411.527 57.2961 409.527 57.4045C407.745 57.5009 405.925 57.8585 404.546 59.4552C403.422 60.7572 402.091 60.7831 400.497 60.7136C396.38 60.5339 394.164 62.7505 393.649 67.483C393.121 72.3369 389.124 74.079 387.009 77.4976C386.326 78.6021 385.713 77.1704 385.346 76.4337C383.669 73.0625 384.708 69.9285 386.205 66.9705C386.929 65.5397 388.092 64.4018 389.011 63.0887C389.568 62.2927 391.018 61.7812 390.358 60.5431C389.773 59.4478 388.431 59.1503 387.267 59.1846C385.813 59.2282 384.829 60.3587 384.159 61.6422C382.991 63.8791 381.615 63.5502 379.592 63.1387C374.317 62.0666 368.855 61.4392 365.181 67.4422C364.209 69.0315 361.199 69.2631 362.117 71.8439C362.98 74.2727 365.64 72.6659 367.442 73.2951C368.774 73.7593 370.568 73.2386 370.628 75.2708C370.692 77.4614 372.658 79.9134 370.464 81.865C369.784 82.471 369.169 82.8398 369.077 83.8712C369.03 84.3911 369.046 85.1778 368.485 85.176C367.955 85.1741 368.013 84.3976 367.958 83.8981C367.918 83.5293 367.946 83.1521 367.908 82.7824C367.804 81.7454 368.206 80.6204 367.496 79.6873C367.249 80.7372 367.164 81.8863 366.725 82.8213C364.635 87.2851 362.408 91.5014 357.523 92.8451C353.048 94.0757 352.604 95.1146 353.68 100.239C354.072 102.107 354.081 103.698 352.314 104.359C350.606 104.998 350.074 103.199 349.485 101.953C349.031 100.993 348.776 99.8647 348.628 98.7777C348.411 97.1857 347.632 97.042 346.537 97.4979C345.686 97.8529 344.782 99.0557 344.005 97.6305C343.469 96.6473 343.127 95.9967 342.353 97.2302C341.89 97.9687 341.16 98.8787 341.251 99.5978C341.448 101.162 342.471 99.8962 343.136 99.9694C345.038 100.181 346.83 100.437 344.331 102.979C343.198 104.132 343.537 105.641 343.797 107.146C345.124 114.831 342.219 120.509 335.786 123.115C334.178 123.766 332.17 123.655 331.476 126.225C331.034 127.862 330.374 127.723 329.732 126.084C328.955 124.102 327.793 125.37 326.922 126.062C325.74 127.001 325.72 128.178 326.818 129.306C327.305 129.806 327.826 130.268 328.281 130.803C331.387 134.449 330.294 139.554 326.067 141.458C324.902 141.984 324.723 141.081 324.256 140.331C322.987 138.289 320.797 135.88 319.168 137.552C317.065 139.709 319.289 142.271 320.961 144.086C322.192 145.422 323.641 147.03 323.329 148.764C322.614 152.732 325.714 155.145 325.91 158.66C326 160.245 327.345 160.482 328.466 160.834C331.752 161.868 334.811 164.003 338.443 163.36C339.067 163.25 339.985 163.535 340.031 164.296C340.096 165.377 339.107 165.065 338.528 165.125C334.386 165.546 330.145 164.755 326.42 163.405C323.547 162.364 321.117 158.618 319.25 155.491C317.7 152.887 316 150.402 314.162 148.051C313.625 147.364 312.619 146.93 313.269 145.892C314.002 144.72 315.072 145.181 315.832 145.94C316.935 147.042 317.898 148.324 318.933 149.515C319.276 149.91 319.768 150.342 320.183 149.944C320.67 149.479 320.148 148.973 319.893 148.569C317.197 144.291 316.187 139.546 316.557 134.317C316.695 132.367 316.414 130.415 313.862 131.04C311.667 131.577 311.725 129.202 310.963 127.979C307.764 122.845 306.575 122.714 302.466 126.875C301.522 127.831 300.487 128.671 299.455 129.502C295.905 132.359 294.97 136.591 296.794 141.289C297.167 142.252 298.082 143.317 297.071 144.292C296.14 145.191 295.354 144.054 294.467 143.71C290.371 142.123 288.828 138.253 288.265 134.09C287.426 127.887 283.309 124.302 280.366 119.759C279.611 118.592 278.483 118.345 277.3 118.322C275.822 118.293 274.331 118.144 272.867 118.306C271.956 118.407 271.089 118.257 270.234 118.045C268.777 117.684 267.912 119.808 269.101 120.83C269.668 121.317 270.283 121.761 270.808 122.289C271.753 123.24 270.78 123.816 270.506 124.623C268.77 129.724 264.441 131.037 260.722 132.975C258.396 134.186 256.194 136.017 253.474 136.199C252.969 136.232 252.466 136.533 252.466 137.187C252.466 138.071 253.082 138.497 253.738 138.564C255.404 138.734 256.872 137.704 258.465 137.415C260.685 137.015 261.755 138.722 260.765 141.01C258.813 145.526 256.303 149.691 252.707 152.866C247.201 157.728 246.676 159.714 248.741 166.997C250.359 172.704 250.17 173.565 245.78 177.34C244.106 178.781 242.671 180.102 243.504 182.829C243.833 183.908 243.914 185.382 243.126 185.998C239.977 188.464 238.947 192.565 236.97 195.901C233.792 201.264 228.922 201.007 224.236 201.411C222.767 201.538 221.66 199.886 221.511 198.595C220.975 193.95 218.943 189.721 217.535 185.625C215.369 179.32 213.744 173.886 215.914 167.239C216.537 165.331 215.716 162.179 214.609 160.326C212.754 157.22 211.872 154.092 211.958 150.439C211.985 149.275 211.427 147.826 210.392 147.996C207.571 148.461 205.283 145.515 202.92 146.118C200.268 146.795 197.364 146.203 194.928 147.922C193.291 149.077 191.843 148.612 190.352 147.501C186.609 144.712 184.489 140.149 181.223 136.839C180.881 136.491 180.674 135.809 180.756 135.297C181.878 128.247 179.731 120.139 185.597 114.608C188.45 111.919 189.576 107.798 192.32 105.042C193.472 103.885 193.525 102.318 191.774 101.543C190.606 101.026 189.389 100.282 189.769 98.8518C190.402 96.4694 189.183 93.9581 190.247 91.7776C191.204 89.8214 193.06 90.1763 194.686 90.2745C199.533 90.5674 199.976 90.1457 199.115 84.5412C198.75 82.1671 199.249 81.0597 201.038 79.5918C203.113 77.8886 205.095 75.9083 207.204 74.219C210.597 71.5001 210.981 70.4437 208.558 66.3145C207.799 65.0227 207.307 63.7587 207.008 62.3038C206.176 58.2505 206.737 56.5065 210.111 54.7088C212.465 53.455 214.231 51.8138 215.266 49.0718C217.065 44.3078 220.53 41.6075 224.631 39.8171C226.315 39.0823 228.073 38.5698 229.768 37.8646C232.788 36.6081 235.367 36.027 238.104 39.3121C239.906 41.474 243.344 41.1413 245.73 42.8946C246.54 43.4914 247.801 43.5942 248.308 44.3782C250.294 47.4427 251.749 49.0292 252.877 43.7277C253.136 42.511 254.851 42.1051 255.776 43.3542C257.182 45.253 258.448 44.8082 260.043 43.7638C262.719 42.0124 265.822 42.9002 268.704 42.2635C271.762 41.588 269.756 40.0933 269.362 38.8043L269.416 38.7274C271.822 39.2861 274.217 39.9228 276.638 40.3713C277.919 40.6085 278.822 40.6437 279.22 38.3687C280.084 33.4305 282.04 32.4992 286.821 33.0098C288.532 33.1923 290.186 32.8578 291.92 33.7261C292.921 34.2274 294.716 34.0069 294.994 31.9904C295.381 29.178 296.649 29.5403 298.517 30.1612C300.245 30.7348 302.602 31.7161 302.578 27.762C302.571 26.726 303.701 26.537 304.494 26.3405C307.979 25.4787 311.23 23.6643 314.988 23.8542C318.438 24.0285 319.369 21.431 317.515 17.7011C318.531 16.7874 319.116 15.5244 319.663 14.2298ZM209.098 91.2429C205.46 91.9713 202.992 94.4594 201.511 98.0447C200.787 99.797 200.156 101.369 198.555 102.231C198.021 102.519 196.939 102.354 197.07 103.143C197.172 103.759 198.264 103.63 198.849 103.398C201.781 102.239 204.7 101.154 207.843 100.844C209.56 100.675 211.101 100.954 212.597 101.731C214.068 102.495 213.879 104.072 213.96 105.569C214.024 106.733 214.827 107.703 215.854 107.764C219.146 107.955 222.283 111.12 225.77 108.362C226.307 107.937 227.477 108.025 228.132 108.389C231.759 110.408 235.638 109.007 239.365 109.588C241.191 109.873 241.84 107.846 242.19 106.343C242.617 104.505 241.301 104.467 240.039 104.368C238.945 104.282 237.811 103.244 236.817 103.437C233.395 104.101 231.888 102.489 231.671 98.7638C231.628 98.0113 231.225 97.2941 230.401 97.4229C229.846 97.51 229.894 98.2004 229.684 98.6582C228.472 101.303 225.335 101.757 223.834 99.507C223.379 98.825 223.339 97.0152 222.678 97.3914C219.271 99.33 217.764 95.7428 215.494 94.4974C214.003 93.6791 213.077 93.3789 212.927 95.8327C212.848 97.1384 212.204 98.787 210.905 98.3533C209.04 97.7306 210.695 96.2636 210.776 95.1562C210.899 93.4966 211.958 91.2874 209.098 91.2429ZM222.098 70.9135C224.369 71.0479 224.181 70.9126 225.104 69.2641C227.27 65.3915 226.411 61.5634 225.28 57.7066C224.962 56.6214 225.089 54.617 223.335 55.326C222 55.8662 221.164 57.6287 222.029 58.9622C224.954 63.4733 221.106 65.6509 219.532 68.3791C218.548 70.0851 216.57 71.8152 214.9 68.5931C214.656 68.1215 214.093 67.7397 213.697 68.1845C213.413 68.5033 213.301 69.2288 213.38 69.7172C213.901 72.9179 216.125 72.2359 218.026 72.2415C219.492 72.2461 220.421 70.1036 222.098 70.9135ZM249.119 93.4326C248.426 90.37 244.595 90.635 244.028 87.1211C243.899 86.3195 242.933 88.3517 242.246 88.941C241.157 89.8742 240.058 90.1531 239.384 88.6186C238.833 87.3629 238.239 86.6086 237.28 87.7549C236.183 89.0652 234.885 90.4182 235.095 92.5338C235.23 93.8784 236.142 94.6457 237.143 94.3982C240.288 93.6217 243.201 94.1202 246.169 95.4454C247.413 95.9995 248.775 95.3342 249.119 93.4326ZM246.019 122.503C244.99 122.755 244.95 123.603 244.896 124.531C244.738 127.235 246.452 128.808 247.713 130.649C248.285 131.484 248.873 132.977 249.818 132.52C251.183 131.86 250.323 130.34 250.065 129.193C249.576 127.013 248.158 125.42 247.166 123.559C246.938 123.131 246.446 122.884 246.019 122.503ZM0 74.6999C4.10971 71.8421 8.27091 69.1093 12.871 67.3486C13.4577 67.1244 14.2733 66.712 14.2095 65.9076C14.136 64.9763 13.1447 65.3813 12.625 65.0347C10.5076 63.6225 8.31259 62.3334 6.30554 60.7405C3.82615 58.7722 3.94137 57.1432 6.49431 55.3797C7.04511 54.9988 7.69315 54.8014 8.29298 54.5086C8.98025 54.1722 10.3793 54.4039 10.1047 53.2539C9.86364 52.2438 8.66808 53.1983 7.89909 53.1492C7.25268 53.1084 6.55806 53.1501 5.97539 52.8916C4.85174 52.393 3.86047 51.4432 4.0615 49.9939C4.31728 48.1488 5.7621 48.0061 7.11621 47.9885C7.7193 47.9802 8.5839 48.7818 8.85195 47.9255C9.10119 47.1304 8.06825 47.0035 7.54769 46.6208C3.65862 43.7573 3.67333 43.0568 7.591 40.4778C8.58227 39.8255 9.51061 39.0239 10.5509 38.5022C13.5084 37.0195 16.2877 36.1216 19.778 37.5134C23.5608 39.022 27.8151 38.934 31.8055 39.8672C36.7562 41.0246 41.4567 41.0515 46.5054 39.5966C51.3547 38.1992 56.5529 39.2389 61.4169 41.1784C62.0012 41.411 62.7506 41.9967 63.205 41.2275C63.616 40.5316 63.1143 39.7764 62.5643 39.3566C61.743 38.7311 60.992 38.2056 60.7836 36.9083C60.5474 35.4386 59.7809 35.1106 58.7814 36.3291C57.5965 37.7738 56.1705 37.7479 54.7158 37.0297C53.2269 36.2948 52.0885 35.2162 53.119 33.1794C53.696 32.0386 54.3277 30.997 54.2582 29.5894C54.1602 27.6147 55.6826 27.1801 56.5505 27.8121C59.3429 29.8433 62.8438 28.7174 65.6803 31.2028C68.0126 33.247 71.2332 33.8466 74.3099 31.7199C76.0857 30.4929 77.9596 30.2214 77.5714 33.8419C77.421 35.2477 77.837 36.7823 78.7555 37.3336C81.2774 38.8469 83.3932 40.0136 79.8032 42.9743C79.0505 43.5952 79.6103 44.7646 80.5468 45.0658C81.6631 45.4244 83.264 45.6737 83.3923 44.0594C83.5427 42.1681 84.1213 41.1413 85.4231 40.0506C87.547 38.2714 87.1899 37.1854 84.4621 37.1529C82.2458 37.1261 81.4866 34.5221 79.8187 33.4852C81.7612 33.0886 82.5245 30.4466 84.6189 30.2835C85.7589 30.1945 86.8883 29.9147 88.0201 29.7034C89.6349 29.4022 90.7406 28.4904 90.9784 26.524C91.0994 25.5269 91.0356 24.6076 89.997 24.3732C88.5154 24.0396 87.2128 23.0406 85.8758 25.4731C83.9881 28.9065 80.2477 26.0329 77.6335 27.6054L76.956 25.5714C77.3655 25.0784 77.4112 24.5863 76.9544 24.0942C77.2903 22.1167 76.0244 20.3338 76.8702 18.1163C78.2889 14.3966 78.6452 14.0167 81.5054 16.072C82.3586 16.6855 83.4503 17.3768 83.1169 18.5676C82.6699 20.1596 81.4809 18.8103 80.631 18.8752C79.576 18.9558 78.5602 19.0633 78.5488 20.5645C78.5373 22.0417 79.4992 22.3039 80.5877 22.2965C81.7342 22.2891 82.884 22.417 84.0265 22.3475C86.134 22.2196 87.3656 21.4087 85.6715 18.9336C84.9344 17.8559 83.9881 16.666 85.2032 15.5781C86.4683 14.4448 87.346 16.0915 87.9589 16.9681C88.5709 17.8438 90.7177 17.8429 89.447 20.2495C89.0621 20.9788 91.0994 21.4764 92.1397 21.7674C92.6373 21.9064 93.1269 21.5616 93.2511 20.9324C93.5028 19.6546 92.9659 18.8029 92.0032 18.2238C91.8512 18.1353 91.705 18.0343 91.566 17.9217C85.486 12.8546 85.5587 11.2654 92.0874 6.90814C93.2168 6.15231 94.4407 5.59492 95.7174 5.25496C102.4 3.44795 109.249 2.92623 116.032 2.02643C118.867 1.6502 121.87 2.75109 124.778 3.31173C125.883 3.52486 127.814 4.04195 127.841 4.5303C127.92 5.94997 126.181 5.89807 125.404 6.80436C124.963 7.31959 124.14 7.68655 124.579 8.55207C125.08 9.53897 126.188 9.58624 126.667 8.85787C129.52 4.52382 133.499 5.62006 137.413 5.34392C140.597 5.11966 143.814 4.64428 147.087 3.36732C150.691 1.96063 154.989 1.5529 159.038 1.18501C159.85 1.1118 160.893 1.63445 161.461 1.22486C166.359 -2.30763 170.455 2.9494 175.028 2.6992C175.573 2.66954 175.993 3.19218 175.818 3.81212C175.687 4.27546 175.264 4.94082 174.931 4.9714C172.646 5.18361 170.35 5.23921 168.059 5.37914C167.586 5.40787 167.121 5.58393 166.651 5.69235C166.929 6.60142 167.642 6.29099 168.159 6.29006C173.053 6.27709 177.939 7.06105 182.848 6.39385C184.041 6.23168 185.769 6.03893 186.004 8.07298C186.188 9.67334 184.688 9.97637 183.712 10.5833C180.205 12.7666 176.294 14.6867 178.981 20.6452C179.316 21.3893 178.445 22.0769 178.459 22.6551C178.592 27.7935 174.631 31.8097 175.476 37.1668C175.714 38.6736 174.88 40.2452 173.529 40.7178C170.578 41.7502 168.283 44.6998 164.912 44.4616C164.594 44.4394 164.199 44.4644 163.952 44.6562C159.127 48.3981 152.703 50.1736 151.087 57.8919C150.473 60.823 148.96 61.189 146.651 60.4403C142.994 59.2541 141.186 56.0988 139.349 52.6923C137.445 49.1626 136.62 45.9675 139.535 42.6527C139.99 42.1357 139.958 41.487 139.322 40.8114C137.868 39.2695 135.299 34.2172 134.913 32.5372C133.73 27.383 129.205 23.175 124.721 24.5335C119.766 26.0347 117.983 22.2946 115.495 19.3348C114.483 18.132 115.369 17.2906 116.284 16.7726C117.592 16.0303 119.134 16.035 120.401 15.0091C121.428 14.1779 121.498 13.4681 120.974 12.2449C120.421 10.954 119.745 11.4081 118.996 11.7482C114.543 13.7702 110.591 16.2472 109.129 22.1214C108.64 24.0905 107.269 25.6974 106.819 27.9529C106.433 29.8934 104.089 29.4514 102.508 29.7423C101.932 29.8489 100.934 29.2308 100.884 30.1352C100.846 30.8061 102.043 30.4855 102.557 30.82C106.108 33.1312 110.513 31.7245 114.058 34.6352C116.881 36.9528 120.207 38.1676 121.58 42.5249C122.25 44.6516 124.848 45.4207 126.805 46.353C127.719 46.7885 129.045 47.1249 128.047 48.4658C127.265 49.5157 126.894 52.0335 124.802 50.7825C124.097 50.3608 123.573 49.5592 122.951 48.9513C122.589 48.5983 122.1 48.1266 121.699 48.5251C121.256 48.9643 121.687 49.5111 121.995 49.9086C122.428 50.4683 122.958 50.9418 123.342 51.5377C124.043 52.6256 125.88 53.6431 124.443 55.1415C123.358 56.273 121.993 58.0939 120.157 57.1172C116.539 55.1944 113.298 52.0974 108.866 52.9907C108.446 53.0751 108.033 52.444 108.026 51.837C108.017 51.1578 108.444 50.8798 108.977 50.8316C109.794 50.7574 110.658 50.8927 111.421 50.6351C113.516 49.9271 114.803 46.9905 114.057 44.874C113.19 42.4155 107.937 39.5567 105.45 39.8801C103.688 40.11 104.838 40.8967 104.719 41.7465C104.383 44.141 106.066 47.9357 101.571 48.1405C99.975 48.2137 101.238 49.7047 101.882 50.3803C103.05 51.6081 105.784 51.8018 105.463 53.5903C105.159 55.2954 102.494 52.8165 101.143 54.5531C100.581 55.2759 99.5321 55.351 98.8604 54.7292C96.2241 52.2902 94.6321 54.8218 92.9487 56.3342C87.9409 60.8341 88.1476 63.3213 93.9612 66.4979C95.2761 67.2161 96.488 68.2966 97.8952 68.6849C101.561 69.6977 104.685 71.2471 105.606 76.0028C105.768 76.8405 106.68 78.3584 107.783 77.1853C108.389 76.5394 108.393 75.4626 107.925 74.6832C106.489 72.2924 106.76 70.706 109.223 69.4837C110.322 68.9388 109.988 67.5034 109.528 66.5072C108.71 64.7372 109.024 62.87 108.949 61.0324C108.757 56.3203 111.091 54.5957 114.833 56.8346C116.256 57.6862 117.893 58.6851 118.69 60.1391C120.027 62.579 121.078 63.8439 123.665 62.0249C125.347 60.8424 126.543 62.6578 127.087 64.1349C128.276 67.3662 130.45 69.4475 132.663 71.678C134.348 73.3766 137.015 74.9019 135.428 78.5373C134.915 79.7114 136.073 79.9708 136.708 80.4564C137.812 81.3006 138.844 82.2356 139.089 83.8462C139.202 84.5866 138.779 85.8923 138.699 85.8219C136.893 84.2363 134.736 85.7459 132.96 84.9378C131.762 84.3929 131.695 82.9529 132.143 81.548C132.832 79.3898 131.835 79.4454 130.416 79.8439C129.473 80.1089 128.433 80.2785 127.486 80.1163C124.072 79.5335 124.264 80.8493 125.302 83.937C126.223 86.6772 127.166 86.4631 128.884 85.3632C129.687 84.8489 130.533 84.9647 130.909 86.0331C131.266 87.0479 130.708 88.2349 130.026 88.36C127.466 88.8308 125.375 92.329 122.334 89.8696C121.418 89.1301 119.88 89.6917 119.724 90.5173C119.102 93.794 116.667 94.6568 114.659 96.1608C114.279 96.4443 114.002 97.0254 113.836 97.535C112.358 102.055 110.246 105.924 106.743 108.963C104.963 110.507 104.848 113.191 106.674 115.411C107.571 116.499 107.824 118.002 106.616 118.786C105.42 119.562 105.252 117.615 104.533 117.013C103.768 116.371 103.12 115.438 102.635 114.492C101.204 111.705 99.0066 111.405 96.6662 112.255C95.2336 112.776 93.8501 113.17 92.357 113.171C89.4184 113.173 86.7952 113.008 87.4767 118.223C87.7309 120.168 85.2776 122.353 87.5217 124.837C89.1561 126.645 90.6328 127.503 92.6945 126.043C93.39 125.551 94.0405 124.974 94.7441 124.497C95.7689 123.801 97.0437 123.267 98.0211 123.954C99.5207 125.008 98.0521 126.334 97.6558 127.249C96.381 130.197 96.6318 131.724 99.8949 131.693C101.636 131.677 102.607 132.997 102.647 134.937C102.685 136.756 102.005 139.042 104.055 139.744C106.194 140.476 108.909 140.725 110.577 139.212C114.17 135.957 117.709 136.646 121.571 138.019C122.61 138.387 123.689 138.562 124.775 138.642C131.039 139.111 134.487 145.82 140.239 147.405C142.2 155.102 149.209 153.912 153.722 157.108C154.891 157.937 156.393 158.362 157.658 159.247C160.097 160.956 160.77 163.149 158.919 165.724C157.068 168.299 156.589 171.316 155.801 174.366C154.506 179.378 153.709 185.168 147.354 185.624C145.641 185.747 144.751 187.574 144.245 189.525C142.211 197.354 141.477 198.179 134.018 201.447C133.439 201.701 133.272 201.96 133.462 202.562C134.633 206.282 132.387 207.295 130.01 207.547C127.788 207.783 127.674 209.878 126.792 211.243C125.207 213.695 124.838 217.036 122.474 218.984C122.327 219.105 122.492 220.183 122.774 220.429C124.302 221.758 123.625 222.616 122.653 224C119.43 228.596 119.488 228.848 122.383 233.63C122.845 234.394 123.739 234.963 122.287 235.517C118.361 237.014 114.676 234.944 113.188 230.512C112.028 227.055 111.959 223.278 112.77 220.047C114.462 213.299 114.216 206.287 115.654 199.444C116.755 194.206 117.643 188.378 117.716 182.675C117.763 179.106 116.508 176.359 114.015 174.688C111.257 172.838 109.71 170.24 108.671 167.002C108.395 166.142 107.899 165.375 107.55 164.541C106.629 162.34 102.969 161.613 105.069 157.716C106.205 155.609 105.706 152.542 107.799 150.8C109.146 149.679 109.215 148.048 109.293 146.314C109.376 144.462 108.982 143.698 107.185 143.5C103.935 143.142 100.528 142.745 99.7274 137.93C99.5533 136.883 98.4485 136.769 97.7171 136.601C93.9416 135.731 90.9637 132.889 86.5998 132.708C82.9167 132.556 77.953 130.437 76.0841 124.874C75.2587 122.417 74.3353 120.631 70.9202 121.415C68.127 122.057 66.3144 118.073 65.3665 115.186C63.8881 110.687 61.7806 107.233 58.3671 104.135C54.6774 100.787 53.6641 95.286 53.7573 89.94C53.821 86.2871 54.0653 82.8296 50.6004 80.8419C49.8625 80.4184 49.5601 79.7373 49.458 78.6438C49.0518 74.307 48.738 74.0642 44.6765 73.6982C43.3698 73.5805 43.4213 72.3221 42.9408 71.4047C39.9866 65.7686 36.2348 61.5958 29.966 60.8276C27.6942 60.5487 26.2992 61.8775 24.4859 62.2751C22.5613 62.6967 20.2707 61.6792 21.5358 65.7353C21.9092 66.9344 20.2527 68.7497 18.8978 68.2531C16.4209 67.344 15.2408 68.8489 13.9709 70.6337C13.6685 71.059 13.2828 71.7142 12.9175 71.7299C8.42945 71.9236 4.71935 75.2986 0.287656 75.6664L0 74.6999ZM93.2993 33.096C92.4943 33.2498 91.6902 33.4296 91.1321 34.1885C90.4955 35.054 90.7349 35.9622 91.2669 36.6868C92.9896 39.0322 94.2701 41.9383 97.3175 42.637C97.9091 42.7723 97.1638 44.8138 98.4395 44.457C99.0622 44.2837 99.7037 43.2365 99.9293 42.4368C100.22 41.4054 99.3923 40.6863 98.6209 40.4704C95.9773 39.7309 95.044 37.6079 94.7604 34.8316C94.6632 33.8836 94.4082 33.0014 93.2993 33.096Z"/>
</mask>
<path d="M319.663 14.2298C322.448 14.8711 325.128 15.15 325.572 19.6675C325.798 21.9685 328.536 22.2038 330.557 22.2659C334.182 22.378 335.13 23.0425 334.914 26.7075C334.74 29.6673 335.584 30.543 338.024 30.7867C341.237 31.1073 344.248 32.1461 347.629 30.6718C350.673 29.3457 352.413 31.0962 353.858 35.2523C354.164 36.1327 354.603 37.3068 355.51 36.672C359.645 33.7789 364.583 36.0326 369.013 33.4796C371.956 31.7838 376.149 32.552 379.101 35.7694C380.529 37.3253 382.223 38.0731 383.995 36.7053C385.874 35.2551 387.43 36.5895 388.396 37.7173C391.467 41.2989 394.935 40.2341 398.458 39.4724C398.93 39.3705 399.387 39.1777 399.85 39.0276C401.764 38.4058 399.97 43.3867 402.115 41.2637C403.252 40.1387 404.047 39.9033 405.333 39.7263C411.19 38.9192 415.509 42.6861 420 46.0249L417.852 51.7471C417.696 51.7023 417.54 51.6612 417.383 51.6239C416.109 51.3227 414.946 48.7947 414.562 49.486C413.768 50.9131 412.17 52.1336 412.378 54.1296C412.644 56.6909 411.527 57.2961 409.527 57.4045C407.745 57.5009 405.925 57.8585 404.546 59.4552C403.422 60.7572 402.091 60.7831 400.497 60.7136C396.38 60.5339 394.164 62.7505 393.649 67.483C393.121 72.3369 389.124 74.079 387.009 77.4976C386.326 78.6021 385.713 77.1704 385.346 76.4337C383.669 73.0625 384.708 69.9285 386.205 66.9705C386.929 65.5397 388.092 64.4018 389.011 63.0887C389.568 62.2927 391.018 61.7812 390.358 60.5431C389.773 59.4478 388.431 59.1503 387.267 59.1846C385.813 59.2282 384.829 60.3587 384.159 61.6422C382.991 63.8791 381.615 63.5502 379.592 63.1387C374.317 62.0666 368.855 61.4392 365.181 67.4422C364.209 69.0315 361.199 69.2631 362.117 71.8439C362.98 74.2727 365.64 72.6659 367.442 73.2951C368.774 73.7593 370.568 73.2386 370.628 75.2708C370.692 77.4614 372.658 79.9134 370.464 81.865C369.784 82.471 369.169 82.8398 369.077 83.8712C369.03 84.3911 369.046 85.1778 368.485 85.176C367.955 85.1741 368.013 84.3976 367.958 83.8981C367.918 83.5293 367.946 83.1521 367.908 82.7824C367.804 81.7454 368.206 80.6204 367.496 79.6873C367.249 80.7372 367.164 81.8863 366.725 82.8213C364.635 87.2851 362.408 91.5014 357.523 92.8451C353.048 94.0757 352.604 95.1146 353.68 100.239C354.072 102.107 354.081 103.698 352.314 104.359C350.606 104.998 350.074 103.199 349.485 101.953C349.031 100.993 348.776 99.8647 348.628 98.7777C348.411 97.1857 347.632 97.042 346.537 97.4979C345.686 97.8529 344.782 99.0557 344.005 97.6305C343.469 96.6473 343.127 95.9967 342.353 97.2302C341.89 97.9687 341.16 98.8787 341.251 99.5978C341.448 101.162 342.471 99.8962 343.136 99.9694C345.038 100.181 346.83 100.437 344.331 102.979C343.198 104.132 343.537 105.641 343.797 107.146C345.124 114.831 342.219 120.509 335.786 123.115C334.178 123.766 332.17 123.655 331.476 126.225C331.034 127.862 330.374 127.723 329.732 126.084C328.955 124.102 327.793 125.37 326.922 126.062C325.74 127.001 325.72 128.178 326.818 129.306C327.305 129.806 327.826 130.268 328.281 130.803C331.387 134.449 330.294 139.554 326.067 141.458C324.902 141.984 324.723 141.081 324.256 140.331C322.987 138.289 320.797 135.88 319.168 137.552C317.065 139.709 319.289 142.271 320.961 144.086C322.192 145.422 323.641 147.03 323.329 148.764C322.614 152.732 325.714 155.145 325.91 158.66C326 160.245 327.345 160.482 328.466 160.834C331.752 161.868 334.811 164.003 338.443 163.36C339.067 163.25 339.985 163.535 340.031 164.296C340.096 165.377 339.107 165.065 338.528 165.125C334.386 165.546 330.145 164.755 326.42 163.405C323.547 162.364 321.117 158.618 319.25 155.491C317.7 152.887 316 150.402 314.162 148.051C313.625 147.364 312.619 146.93 313.269 145.892C314.002 144.72 315.072 145.181 315.832 145.94C316.935 147.042 317.898 148.324 318.933 149.515C319.276 149.91 319.768 150.342 320.183 149.944C320.67 149.479 320.148 148.973 319.893 148.569C317.197 144.291 316.187 139.546 316.557 134.317C316.695 132.367 316.414 130.415 313.862 131.04C311.667 131.577 311.725 129.202 310.963 127.979C307.764 122.845 306.575 122.714 302.466 126.875C301.522 127.831 300.487 128.671 299.455 129.502C295.905 132.359 294.97 136.591 296.794 141.289C297.167 142.252 298.082 143.317 297.071 144.292C296.14 145.191 295.354 144.054 294.467 143.71C290.371 142.123 288.828 138.253 288.265 134.09C287.426 127.887 283.309 124.302 280.366 119.759C279.611 118.592 278.483 118.345 277.3 118.322C275.822 118.293 274.331 118.144 272.867 118.306C271.956 118.407 271.089 118.257 270.234 118.045C268.777 117.684 267.912 119.808 269.101 120.83C269.668 121.317 270.283 121.761 270.808 122.289C271.753 123.24 270.78 123.816 270.506 124.623C268.77 129.724 264.441 131.037 260.722 132.975C258.396 134.186 256.194 136.017 253.474 136.199C252.969 136.232 252.466 136.533 252.466 137.187C252.466 138.071 253.082 138.497 253.738 138.564C255.404 138.734 256.872 137.704 258.465 137.415C260.685 137.015 261.755 138.722 260.765 141.01C258.813 145.526 256.303 149.691 252.707 152.866C247.201 157.728 246.676 159.714 248.741 166.997C250.359 172.704 250.17 173.565 245.78 177.34C244.106 178.781 242.671 180.102 243.504 182.829C243.833 183.908 243.914 185.382 243.126 185.998C239.977 188.464 238.947 192.565 236.97 195.901C233.792 201.264 228.922 201.007 224.236 201.411C222.767 201.538 221.66 199.886 221.511 198.595C220.975 193.95 218.943 189.721 217.535 185.625C215.369 179.32 213.744 173.886 215.914 167.239C216.537 165.331 215.716 162.179 214.609 160.326C212.754 157.22 211.872 154.092 211.958 150.439C211.985 149.275 211.427 147.826 210.392 147.996C207.571 148.461 205.283 145.515 202.92 146.118C200.268 146.795 197.364 146.203 194.928 147.922C193.291 149.077 191.843 148.612 190.352 147.501C186.609 144.712 184.489 140.149 181.223 136.839C180.881 136.491 180.674 135.809 180.756 135.297C181.878 128.247 179.731 120.139 185.597 114.608C188.45 111.919 189.576 107.798 192.32 105.042C193.472 103.885 193.525 102.318 191.774 101.543C190.606 101.026 189.389 100.282 189.769 98.8518C190.402 96.4694 189.183 93.9581 190.247 91.7776C191.204 89.8214 193.06 90.1763 194.686 90.2745C199.533 90.5674 199.976 90.1457 199.115 84.5412C198.75 82.1671 199.249 81.0597 201.038 79.5918C203.113 77.8886 205.095 75.9083 207.204 74.219C210.597 71.5001 210.981 70.4437 208.558 66.3145C207.799 65.0227 207.307 63.7587 207.008 62.3038C206.176 58.2505 206.737 56.5065 210.111 54.7088C212.465 53.455 214.231 51.8138 215.266 49.0718C217.065 44.3078 220.53 41.6075 224.631 39.8171C226.315 39.0823 228.073 38.5698 229.768 37.8646C232.788 36.6081 235.367 36.027 238.104 39.3121C239.906 41.474 243.344 41.1413 245.73 42.8946C246.54 43.4914 247.801 43.5942 248.308 44.3782C250.294 47.4427 251.749 49.0292 252.877 43.7277C253.136 42.511 254.851 42.1051 255.776 43.3542C257.182 45.253 258.448 44.8082 260.043 43.7638C262.719 42.0124 265.822 42.9002 268.704 42.2635C271.762 41.588 269.756 40.0933 269.362 38.8043L269.416 38.7274C271.822 39.2861 274.217 39.9228 276.638 40.3713C277.919 40.6085 278.822 40.6437 279.22 38.3687C280.084 33.4305 282.04 32.4992 286.821 33.0098C288.532 33.1923 290.186 32.8578 291.92 33.7261C292.921 34.2274 294.716 34.0069 294.994 31.9904C295.381 29.178 296.649 29.5403 298.517 30.1612C300.245 30.7348 302.602 31.7161 302.578 27.762C302.571 26.726 303.701 26.537 304.494 26.3405C307.979 25.4787 311.23 23.6643 314.988 23.8542C318.438 24.0285 319.369 21.431 317.515 17.7011C318.531 16.7874 319.116 15.5244 319.663 14.2298ZM209.098 91.2429C205.46 91.9713 202.992 94.4594 201.511 98.0447C200.787 99.797 200.156 101.369 198.555 102.231C198.021 102.519 196.939 102.354 197.07 103.143C197.172 103.759 198.264 103.63 198.849 103.398C201.781 102.239 204.7 101.154 207.843 100.844C209.56 100.675 211.101 100.954 212.597 101.731C214.068 102.495 213.879 104.072 213.96 105.569C214.024 106.733 214.827 107.703 215.854 107.764C219.146 107.955 222.283 111.12 225.77 108.362C226.307 107.937 227.477 108.025 228.132 108.389C231.759 110.408 235.638 109.007 239.365 109.588C241.191 109.873 241.84 107.846 242.19 106.343C242.617 104.505 241.301 104.467 240.039 104.368C238.945 104.282 237.811 103.244 236.817 103.437C233.395 104.101 231.888 102.489 231.671 98.7638C231.628 98.0113 231.225 97.2941 230.401 97.4229C229.846 97.51 229.894 98.2004 229.684 98.6582C228.472 101.303 225.335 101.757 223.834 99.507C223.379 98.825 223.339 97.0152 222.678 97.3914C219.271 99.33 217.764 95.7428 215.494 94.4974C214.003 93.6791 213.077 93.3789 212.927 95.8327C212.848 97.1384 212.204 98.787 210.905 98.3533C209.04 97.7306 210.695 96.2636 210.776 95.1562C210.899 93.4966 211.958 91.2874 209.098 91.2429ZM222.098 70.9135C224.369 71.0479 224.181 70.9126 225.104 69.2641C227.27 65.3915 226.411 61.5634 225.28 57.7066C224.962 56.6214 225.089 54.617 223.335 55.326C222 55.8662 221.164 57.6287 222.029 58.9622C224.954 63.4733 221.106 65.6509 219.532 68.3791C218.548 70.0851 216.57 71.8152 214.9 68.5931C214.656 68.1215 214.093 67.7397 213.697 68.1845C213.413 68.5033 213.301 69.2288 213.38 69.7172C213.901 72.9179 216.125 72.2359 218.026 72.2415C219.492 72.2461 220.421 70.1036 222.098 70.9135ZM249.119 93.4326C248.426 90.37 244.595 90.635 244.028 87.1211C243.899 86.3195 242.933 88.3517 242.246 88.941C241.157 89.8742 240.058 90.1531 239.384 88.6186C238.833 87.3629 238.239 86.6086 237.28 87.7549C236.183 89.0652 234.885 90.4182 235.095 92.5338C235.23 93.8784 236.142 94.6457 237.143 94.3982C240.288 93.6217 243.201 94.1202 246.169 95.4454C247.413 95.9995 248.775 95.3342 249.119 93.4326ZM246.019 122.503C244.99 122.755 244.95 123.603 244.896 124.531C244.738 127.235 246.452 128.808 247.713 130.649C248.285 131.484 248.873 132.977 249.818 132.52C251.183 131.86 250.323 130.34 250.065 129.193C249.576 127.013 248.158 125.42 247.166 123.559C246.938 123.131 246.446 122.884 246.019 122.503ZM0 74.6999C4.10971 71.8421 8.27091 69.1093 12.871 67.3486C13.4577 67.1244 14.2733 66.712 14.2095 65.9076C14.136 64.9763 13.1447 65.3813 12.625 65.0347C10.5076 63.6225 8.31259 62.3334 6.30554 60.7405C3.82615 58.7722 3.94137 57.1432 6.49431 55.3797C7.04511 54.9988 7.69315 54.8014 8.29298 54.5086C8.98025 54.1722 10.3793 54.4039 10.1047 53.2539C9.86364 52.2438 8.66808 53.1983 7.89909 53.1492C7.25268 53.1084 6.55806 53.1501 5.97539 52.8916C4.85174 52.393 3.86047 51.4432 4.0615 49.9939C4.31728 48.1488 5.7621 48.0061 7.11621 47.9885C7.7193 47.9802 8.5839 48.7818 8.85195 47.9255C9.10119 47.1304 8.06825 47.0035 7.54769 46.6208C3.65862 43.7573 3.67333 43.0568 7.591 40.4778C8.58227 39.8255 9.51061 39.0239 10.5509 38.5022C13.5084 37.0195 16.2877 36.1216 19.778 37.5134C23.5608 39.022 27.8151 38.934 31.8055 39.8672C36.7562 41.0246 41.4567 41.0515 46.5054 39.5966C51.3547 38.1992 56.5529 39.2389 61.4169 41.1784C62.0012 41.411 62.7506 41.9967 63.205 41.2275C63.616 40.5316 63.1143 39.7764 62.5643 39.3566C61.743 38.7311 60.992 38.2056 60.7836 36.9083C60.5474 35.4386 59.7809 35.1106 58.7814 36.3291C57.5965 37.7738 56.1705 37.7479 54.7158 37.0297C53.2269 36.2948 52.0885 35.2162 53.119 33.1794C53.696 32.0386 54.3277 30.997 54.2582 29.5894C54.1602 27.6147 55.6826 27.1801 56.5505 27.8121C59.3429 29.8433 62.8438 28.7174 65.6803 31.2028C68.0126 33.247 71.2332 33.8466 74.3099 31.7199C76.0857 30.4929 77.9596 30.2214 77.5714 33.8419C77.421 35.2477 77.837 36.7823 78.7555 37.3336C81.2774 38.8469 83.3932 40.0136 79.8032 42.9743C79.0505 43.5952 79.6103 44.7646 80.5468 45.0658C81.6631 45.4244 83.264 45.6737 83.3923 44.0594C83.5427 42.1681 84.1213 41.1413 85.4231 40.0506C87.547 38.2714 87.1899 37.1854 84.4621 37.1529C82.2458 37.1261 81.4866 34.5221 79.8187 33.4852C81.7612 33.0886 82.5245 30.4466 84.6189 30.2835C85.7589 30.1945 86.8883 29.9147 88.0201 29.7034C89.6349 29.4022 90.7406 28.4904 90.9784 26.524C91.0994 25.5269 91.0356 24.6076 89.997 24.3732C88.5154 24.0396 87.2128 23.0406 85.8758 25.4731C83.9881 28.9065 80.2477 26.0329 77.6335 27.6054L76.956 25.5714C77.3655 25.0784 77.4112 24.5863 76.9544 24.0942C77.2903 22.1167 76.0244 20.3338 76.8702 18.1163C78.2889 14.3966 78.6452 14.0167 81.5054 16.072C82.3586 16.6855 83.4503 17.3768 83.1169 18.5676C82.6699 20.1596 81.4809 18.8103 80.631 18.8752C79.576 18.9558 78.5602 19.0633 78.5488 20.5645C78.5373 22.0417 79.4992 22.3039 80.5877 22.2965C81.7342 22.2891 82.884 22.417 84.0265 22.3475C86.134 22.2196 87.3656 21.4087 85.6715 18.9336C84.9344 17.8559 83.9881 16.666 85.2032 15.5781C86.4683 14.4448 87.346 16.0915 87.9589 16.9681C88.5709 17.8438 90.7177 17.8429 89.447 20.2495C89.0621 20.9788 91.0994 21.4764 92.1397 21.7674C92.6373 21.9064 93.1269 21.5616 93.2511 20.9324C93.5028 19.6546 92.9659 18.8029 92.0032 18.2238C91.8512 18.1353 91.705 18.0343 91.566 17.9217C85.486 12.8546 85.5587 11.2654 92.0874 6.90814C93.2168 6.15231 94.4407 5.59492 95.7174 5.25496C102.4 3.44795 109.249 2.92623 116.032 2.02643C118.867 1.6502 121.87 2.75109 124.778 3.31173C125.883 3.52486 127.814 4.04195 127.841 4.5303C127.92 5.94997 126.181 5.89807 125.404 6.80436C124.963 7.31959 124.14 7.68655 124.579 8.55207C125.08 9.53897 126.188 9.58624 126.667 8.85787C129.52 4.52382 133.499 5.62006 137.413 5.34392C140.597 5.11966 143.814 4.64428 147.087 3.36732C150.691 1.96063 154.989 1.5529 159.038 1.18501C159.85 1.1118 160.893 1.63445 161.461 1.22486C166.359 -2.30763 170.455 2.9494 175.028 2.6992C175.573 2.66954 175.993 3.19218 175.818 3.81212C175.687 4.27546 175.264 4.94082 174.931 4.9714C172.646 5.18361 170.35 5.23921 168.059 5.37914C167.586 5.40787 167.121 5.58393 166.651 5.69235C166.929 6.60142 167.642 6.29099 168.159 6.29006C173.053 6.27709 177.939 7.06105 182.848 6.39385C184.041 6.23168 185.769 6.03893 186.004 8.07298C186.188 9.67334 184.688 9.97637 183.712 10.5833C180.205 12.7666 176.294 14.6867 178.981 20.6452C179.316 21.3893 178.445 22.0769 178.459 22.6551C178.592 27.7935 174.631 31.8097 175.476 37.1668C175.714 38.6736 174.88 40.2452 173.529 40.7178C170.578 41.7502 168.283 44.6998 164.912 44.4616C164.594 44.4394 164.199 44.4644 163.952 44.6562C159.127 48.3981 152.703 50.1736 151.087 57.8919C150.473 60.823 148.96 61.189 146.651 60.4403C142.994 59.2541 141.186 56.0988 139.349 52.6923C137.445 49.1626 136.62 45.9675 139.535 42.6527C139.99 42.1357 139.958 41.487 139.322 40.8114C137.868 39.2695 135.299 34.2172 134.913 32.5372C133.73 27.383 129.205 23.175 124.721 24.5335C119.766 26.0347 117.983 22.2946 115.495 19.3348C114.483 18.132 115.369 17.2906 116.284 16.7726C117.592 16.0303 119.134 16.035 120.401 15.0091C121.428 14.1779 121.498 13.4681 120.974 12.2449C120.421 10.954 119.745 11.4081 118.996 11.7482C114.543 13.7702 110.591 16.2472 109.129 22.1214C108.64 24.0905 107.269 25.6974 106.819 27.9529C106.433 29.8934 104.089 29.4514 102.508 29.7423C101.932 29.8489 100.934 29.2308 100.884 30.1352C100.846 30.8061 102.043 30.4855 102.557 30.82C106.108 33.1312 110.513 31.7245 114.058 34.6352C116.881 36.9528 120.207 38.1676 121.58 42.5249C122.25 44.6516 124.848 45.4207 126.805 46.353C127.719 46.7885 129.045 47.1249 128.047 48.4658C127.265 49.5157 126.894 52.0335 124.802 50.7825C124.097 50.3608 123.573 49.5592 122.951 48.9513C122.589 48.5983 122.1 48.1266 121.699 48.5251C121.256 48.9643 121.687 49.5111 121.995 49.9086C122.428 50.4683 122.958 50.9418 123.342 51.5377C124.043 52.6256 125.88 53.6431 124.443 55.1415C123.358 56.273 121.993 58.0939 120.157 57.1172C116.539 55.1944 113.298 52.0974 108.866 52.9907C108.446 53.0751 108.033 52.444 108.026 51.837C108.017 51.1578 108.444 50.8798 108.977 50.8316C109.794 50.7574 110.658 50.8927 111.421 50.6351C113.516 49.9271 114.803 46.9905 114.057 44.874C113.19 42.4155 107.937 39.5567 105.45 39.8801C103.688 40.11 104.838 40.8967 104.719 41.7465C104.383 44.141 106.066 47.9357 101.571 48.1405C99.975 48.2137 101.238 49.7047 101.882 50.3803C103.05 51.6081 105.784 51.8018 105.463 53.5903C105.159 55.2954 102.494 52.8165 101.143 54.5531C100.581 55.2759 99.5321 55.351 98.8604 54.7292C96.2241 52.2902 94.6321 54.8218 92.9487 56.3342C87.9409 60.8341 88.1476 63.3213 93.9612 66.4979C95.2761 67.2161 96.488 68.2966 97.8952 68.6849C101.561 69.6977 104.685 71.2471 105.606 76.0028C105.768 76.8405 106.68 78.3584 107.783 77.1853C108.389 76.5394 108.393 75.4626 107.925 74.6832C106.489 72.2924 106.76 70.706 109.223 69.4837C110.322 68.9388 109.988 67.5034 109.528 66.5072C108.71 64.7372 109.024 62.87 108.949 61.0324C108.757 56.3203 111.091 54.5957 114.833 56.8346C116.256 57.6862 117.893 58.6851 118.69 60.1391C120.027 62.579 121.078 63.8439 123.665 62.0249C125.347 60.8424 126.543 62.6578 127.087 64.1349C128.276 67.3662 130.45 69.4475 132.663 71.678C134.348 73.3766 137.015 74.9019 135.428 78.5373C134.915 79.7114 136.073 79.9708 136.708 80.4564C137.812 81.3006 138.844 82.2356 139.089 83.8462C139.202 84.5866 138.779 85.8923 138.699 85.8219C136.893 84.2363 134.736 85.7459 132.96 84.9378C131.762 84.3929 131.695 82.9529 132.143 81.548C132.832 79.3898 131.835 79.4454 130.416 79.8439C129.473 80.1089 128.433 80.2785 127.486 80.1163C124.072 79.5335 124.264 80.8493 125.302 83.937C126.223 86.6772 127.166 86.4631 128.884 85.3632C129.687 84.8489 130.533 84.9647 130.909 86.0331C131.266 87.0479 130.708 88.2349 130.026 88.36C127.466 88.8308 125.375 92.329 122.334 89.8696C121.418 89.1301 119.88 89.6917 119.724 90.5173C119.102 93.794 116.667 94.6568 114.659 96.1608C114.279 96.4443 114.002 97.0254 113.836 97.535C112.358 102.055 110.246 105.924 106.743 108.963C104.963 110.507 104.848 113.191 106.674 115.411C107.571 116.499 107.824 118.002 106.616 118.786C105.42 119.562 105.252 117.615 104.533 117.013C103.768 116.371 103.12 115.438 102.635 114.492C101.204 111.705 99.0066 111.405 96.6662 112.255C95.2336 112.776 93.8501 113.17 92.357 113.171C89.4184 113.173 86.7952 113.008 87.4767 118.223C87.7309 120.168 85.2776 122.353 87.5217 124.837C89.1561 126.645 90.6328 127.503 92.6945 126.043C93.39 125.551 94.0405 124.974 94.7441 124.497C95.7689 123.801 97.0437 123.267 98.0211 123.954C99.5207 125.008 98.0521 126.334 97.6558 127.249C96.381 130.197 96.6318 131.724 99.8949 131.693C101.636 131.677 102.607 132.997 102.647 134.937C102.685 136.756 102.005 139.042 104.055 139.744C106.194 140.476 108.909 140.725 110.577 139.212C114.17 135.957 117.709 136.646 121.571 138.019C122.61 138.387 123.689 138.562 124.775 138.642C131.039 139.111 134.487 145.82 140.239 147.405C142.2 155.102 149.209 153.912 153.722 157.108C154.891 157.937 156.393 158.362 157.658 159.247C160.097 160.956 160.77 163.149 158.919 165.724C157.068 168.299 156.589 171.316 155.801 174.366C154.506 179.378 153.709 185.168 147.354 185.624C145.641 185.747 144.751 187.574 144.245 189.525C142.211 197.354 141.477 198.179 134.018 201.447C133.439 201.701 133.272 201.96 133.462 202.562C134.633 206.282 132.387 207.295 130.01 207.547C127.788 207.783 127.674 209.878 126.792 211.243C125.207 213.695 124.838 217.036 122.474 218.984C122.327 219.105 122.492 220.183 122.774 220.429C124.302 221.758 123.625 222.616 122.653 224C119.43 228.596 119.488 228.848 122.383 233.63C122.845 234.394 123.739 234.963 122.287 235.517C118.361 237.014 114.676 234.944 113.188 230.512C112.028 227.055 111.959 223.278 112.77 220.047C114.462 213.299 114.216 206.287 115.654 199.444C116.755 194.206 117.643 188.378 117.716 182.675C117.763 179.106 116.508 176.359 114.015 174.688C111.257 172.838 109.71 170.24 108.671 167.002C108.395 166.142 107.899 165.375 107.55 164.541C106.629 162.34 102.969 161.613 105.069 157.716C106.205 155.609 105.706 152.542 107.799 150.8C109.146 149.679 109.215 148.048 109.293 146.314C109.376 144.462 108.982 143.698 107.185 143.5C103.935 143.142 100.528 142.745 99.7274 137.93C99.5533 136.883 98.4485 136.769 97.7171 136.601C93.9416 135.731 90.9637 132.889 86.5998 132.708C82.9167 132.556 77.953 130.437 76.0841 124.874C75.2587 122.417 74.3353 120.631 70.9202 121.415C68.127 122.057 66.3144 118.073 65.3665 115.186C63.8881 110.687 61.7806 107.233 58.3671 104.135C54.6774 100.787 53.6641 95.286 53.7573 89.94C53.821 86.2871 54.0653 82.8296 50.6004 80.8419C49.8625 80.4184 49.5601 79.7373 49.458 78.6438C49.0518 74.307 48.738 74.0642 44.6765 73.6982C43.3698 73.5805 43.4213 72.3221 42.9408 71.4047C39.9866 65.7686 36.2348 61.5958 29.966 60.8276C27.6942 60.5487 26.2992 61.8775 24.4859 62.2751C22.5613 62.6967 20.2707 61.6792 21.5358 65.7353C21.9092 66.9344 20.2527 68.7497 18.8978 68.2531C16.4209 67.344 15.2408 68.8489 13.9709 70.6337C13.6685 71.059 13.2828 71.7142 12.9175 71.7299C8.42945 71.9236 4.71935 75.2986 0.287656 75.6664L0 74.6999ZM93.2993 33.096C92.4943 33.2498 91.6902 33.4296 91.1321 34.1885C90.4955 35.054 90.7349 35.9622 91.2669 36.6868C92.9896 39.0322 94.2701 41.9383 97.3175 42.637C97.9091 42.7723 97.1638 44.8138 98.4395 44.457C99.0622 44.2837 99.7037 43.2365 99.9293 42.4368C100.22 41.4054 99.3923 40.6863 98.6209 40.4704C95.9773 39.7309 95.044 37.6079 94.7604 34.8316C94.6632 33.8836 94.4082 33.0014 93.2993 33.096Z" stroke="white" stroke-width="6" mask="url(#path-1-inside-1_6_14)"/>
</svg>
